<svg height="700pt" preserveAspectRatio="xMidYMid meet" viewBox="0 0 700 700" width="700pt" xmlns="http://www.w3.org/2000/svg"><g transform="matrix(.1 0 0 -.1 0 700)"><path d="m1320 6985c-337-47-628-193-870-435-175-175-292-364-369-595-82-248-76-44-76-2455v-2145l23-112c128-632 605-1101 1237-1219 96-18 194-19 2235-19 2404 0 2204-6 2455 77 524 174 905 608 1017 1161l23 112v2145 2145l-23 112c-44 217-136 433-259 606-74 104-245 275-349 349-208 148-439 239-694 273-150 21-4204 20-4350 0zm2591-865c76-21 78-26 134-391l50-330 112-44c61-24 130-53 153-65l41-21 260 195c255 193 260 196 308 196s52-2 153-94c148-135 417-410 471-485 39-52 47-71 47-107 0-47 5-39-294-428l-89-116 38-82c21-44 53-120 71-167l32-86 326-51 327-50 32-32 32-32 3-417c3-439 2-451-43-493-24-22-30-23-611-111l-71-11-33-87c-18-47-48-117-67-154l-34-68 38-52c47-66 178-233 277-357 80-100 97-142 77-187-23-51-110-151-276-321-178-183-290-280-361-315-37-18-48-19-81-9-23 7-135 88-280 201l-242 190-78-36c-43-20-112-48-153-63-88-33-78-8-116-285-29-222-59-376-80-416-30-58-34-59-484-59-435 0-440 1-482 47-13 15-30 102-68 349-28 181-54 331-58 335-4 3-36 16-72 29-36 12-102 40-146 60l-82 38-248-190c-137-104-259-194-272-199-70-27-102-6-348 234-322 314-391 404-369 479 7 24 94 142 277 377l105 135-43 92c-24 50-55 128-71 172l-27 80-46 5c-237 30-597 89-616 102-59 39-59 34-62 462-2 247 1 407 7 431 6 21 23 50 39 65 26 25 45 29 337 72 171 25 319 50 330 54 13 6 28 33 44 77 13 38 41 104 62 146 22 43 39 82 39 87 0 13-147 210-283 379-99 123-107 136-107 177 0 63 54 130 310 386 289 290 359 333 446 280 17-11 134-99 258-196l227-177 117 50c64 27 135 56 157 65l40 15 28 208c35 264 70 440 95 473 10 14 34 31 53 38 43 15 786 18 840 3z"/><path d="m3420 4374c-204-18-389-105-539-255-173-173-253-366-253-614-1-272 109-506 320-681 78-65 239-147 332-169 92-22 261-30 349-16 192 30 332 102 477 246 151 149 224 289 255 488 15 93 6 261-20 358-63 242-252 464-487 570-116 53-302 84-434 73z"/></g></svg>